<svg width="25" height="25" viewBox="0 0 25 25" fill="none" xmlns="http://www.w3.org/2000/svg">
<path d="M1.92308 21.4261C1.92308 22.374 2.3283 23.283 3.04959 23.9532C3.77088 24.6235 4.74917 25 5.76923 25H11.2981C11.3618 25 11.423 24.9765 11.4681 24.9346C11.5131 24.8927 11.5385 24.8359 11.5385 24.7766V14.5017C11.5385 14.4425 11.5131 14.3857 11.4681 14.3438C11.423 14.3019 11.3618 14.2784 11.2981 14.2784H2.40385C2.27634 14.2784 2.15405 14.3254 2.06389 14.4092C1.97373 14.493 1.92308 14.6066 1.92308 14.7251V21.4261ZM11.5385 12.268V6.23712H13.4615V12.268C13.4615 12.3273 13.4869 12.3841 13.5319 12.426C13.577 12.4679 13.6382 12.4914 13.7019 12.4914H22.1154C22.443 12.4914 22.7681 12.4395 23.0769 12.3379C23.6388 12.1525 24.1253 11.8101 24.4696 11.3577C24.8139 10.9053 24.9991 10.3651 25 9.81101V8.91754C25 8.20665 24.6961 7.52487 24.1551 7.0222C23.6141 6.51952 22.8804 6.23712 22.1154 6.23712H19.6791C19.6581 6.23681 19.6377 6.23143 19.6197 6.2215C19.6017 6.21157 19.5868 6.19744 19.5764 6.18052C19.5661 6.16359 19.5607 6.14445 19.5608 6.125C19.5609 6.10554 19.5665 6.08645 19.5769 6.0696C20.1333 5.19672 20.314 4.16067 20.0828 3.16919C19.8516 2.1777 19.2256 1.30408 18.3303 0.7235C17.4349 0.14292 16.3365 -0.101696 15.2552 0.0386992C14.1739 0.179095 13.1898 0.694123 12.5 1.48051C11.8102 0.694123 10.826 0.179095 9.74477 0.0386992C8.66349 -0.101696 7.56506 0.14292 6.66974 0.7235C5.77442 1.30408 5.14839 2.1777 4.91718 3.16919C4.68598 4.16067 4.86669 5.19672 5.42308 6.0696C5.43355 6.08645 5.4391 6.10554 5.43919 6.125C5.43927 6.14445 5.43389 6.16359 5.42357 6.18052C5.41324 6.19744 5.39834 6.21157 5.38034 6.2215C5.36233 6.23143 5.34185 6.23681 5.32091 6.23712H2.88462C2.11957 6.23712 1.38585 6.51952 0.844884 7.0222C0.303914 7.52487 0 8.20665 0 8.91754V9.81101C0.000848691 10.3651 0.18612 10.9053 0.53041 11.3577C0.874701 11.8101 1.36116 12.1525 1.92308 12.3379C2.23186 12.4395 2.55704 12.4914 2.88462 12.4914H11.2981C11.3618 12.4914 11.423 12.4679 11.4681 12.426C11.5131 12.3841 11.5385 12.3273 11.5385 12.268ZM13.4615 4.00345C13.4615 3.56167 13.6025 3.12981 13.8667 2.76249C14.1308 2.39516 14.5062 2.10886 14.9455 1.9398C15.3847 1.77074 15.868 1.72651 16.3344 1.81269C16.8007 1.89888 17.229 2.11162 17.5652 2.424C17.9013 2.73639 18.1303 3.13439 18.223 3.56768C18.3158 4.00097 18.2682 4.45009 18.0862 4.85824C17.9043 5.26639 17.5962 5.61524 17.2009 5.86068C16.8056 6.10612 16.3408 6.23712 15.8654 6.23712H13.4615V4.00345ZM8.96274 1.77536C9.29206 1.75342 9.62272 1.79476 9.9341 1.8968C10.2455 1.99883 10.5309 2.15938 10.7725 2.36842C11.0142 2.57747 11.2069 2.83053 11.3387 3.11184C11.4705 3.39314 11.5385 3.69665 11.5385 4.00345V6.23712H9.13461C8.51303 6.23564 7.91624 6.01049 7.46947 5.60892C7.02271 5.20735 6.76072 4.66058 6.73848 4.08337C6.71624 3.50616 6.93549 2.94338 7.3502 2.51316C7.76492 2.08293 8.34286 1.81814 8.96274 1.77536ZM13.7019 25H19.2308C20.2508 25 21.2291 24.6235 21.9504 23.9532C22.6717 23.283 23.0769 22.374 23.0769 21.4261V14.7251C23.0769 14.6066 23.0263 14.493 22.9361 14.4092C22.8459 14.3254 22.7237 14.2784 22.5962 14.2784H13.7019C13.6382 14.2784 13.577 14.3019 13.5319 14.3438C13.4869 14.3857 13.4615 14.4425 13.4615 14.5017V24.7766C13.4615 24.8359 13.4869 24.8927 13.5319 24.9346C13.577 24.9765 13.6382 25 13.7019 25Z" fill="#B3B3B3"/>
</svg>
