<svg width="20" height="20" viewBox="0 0 20 20" fill="none" xmlns="http://www.w3.org/2000/svg">
<path d="M13.2917 8.29L11.0017 10.59V1C11.0017 0.734784 10.8963 0.48043 10.7088 0.292893C10.5213 0.105357 10.2669 0 10.0017 0C9.73649 0 9.48213 0.105357 9.2946 0.292893C9.10706 0.48043 9.00171 0.734784 9.00171 1V10.59L6.7117 8.29C6.61874 8.19627 6.50814 8.12188 6.38628 8.07111C6.26442 8.02034 6.13372 7.9942 6.00171 7.9942C5.86969 7.9942 5.73899 8.02034 5.61713 8.07111C5.49527 8.12188 5.38467 8.19627 5.29171 8.29C5.19798 8.38296 5.12358 8.49356 5.07281 8.61542C5.02204 8.73728 4.99591 8.86799 4.99591 9C4.99591 9.13201 5.02204 9.26272 5.07281 9.38458C5.12358 9.50644 5.19798 9.61704 5.29171 9.71L9.29171 13.71C9.38681 13.801 9.49895 13.8724 9.6217 13.92C9.86517 14.02 10.1382 14.02 10.3817 13.92C10.5045 13.8724 10.6166 13.801 10.7117 13.71L14.7117 9.71C14.8049 9.61676 14.8789 9.50607 14.9294 9.38425C14.9798 9.26243 15.0058 9.13186 15.0058 9C15.0058 8.86814 14.9798 8.73757 14.9294 8.61575C14.8789 8.49393 14.8049 8.38324 14.7117 8.29C14.6185 8.19676 14.5078 8.1228 14.386 8.07234C14.2641 8.02188 14.1336 7.99591 14.0017 7.99591C13.8698 7.99591 13.7393 8.02188 13.6175 8.07234C13.4956 8.1228 13.3849 8.19676 13.2917 8.29ZM19 11.995C18.7348 11.995 18.4804 12.1004 18.2929 12.2879C18.1054 12.4754 18 12.7298 18 12.995V16.995C18 17.2602 17.8946 17.5146 17.7071 17.7021C17.5196 17.8897 17.2652 17.995 17 17.995H3C2.73478 17.995 2.48043 17.8897 2.29289 17.7021C2.10536 17.5146 2 17.2602 2 16.995V12.995C2 12.7298 1.89464 12.4754 1.70711 12.2879C1.51957 12.1004 1.26522 11.995 1 11.995C0.734784 11.995 0.480429 12.1004 0.292892 12.2879C0.105356 12.4754 0 12.7298 0 12.995V16.995C0 17.7907 0.31607 18.5537 0.878679 19.1163C1.44129 19.6789 2.20435 19.995 3 19.995H17C17.7956 19.995 18.5587 19.6789 19.1213 19.1163C19.6839 18.5537 20 17.7907 20 16.995V12.995C20 12.7298 19.8946 12.4754 19.7071 12.2879C19.5196 12.1004 19.2652 11.995 19 11.995Z" fill="#00529C"/>
</svg>
