<svg width="22" height="22" viewBox="0 0 22 22" fill="none" xmlns="http://www.w3.org/2000/svg">
<path d="M7 0H1C0.447715 0 0 0.447715 0 1V7C0 7.55229 0.447715 8 1 8H7C7.55229 8 8 7.55229 8 7V1C8 0.447715 7.55229 0 7 0Z" fill="#B3B3B3"/>
<path d="M21 0H15C14.4477 0 14 0.447715 14 1V7C14 7.55228 14.4477 8 15 8H21C21.5523 8 22 7.55228 22 7V1C22 0.447715 21.5523 0 21 0Z" fill="#B3B3B3"/>
<path d="M21 14H15C14.4477 14 14 14.4477 14 15V21C14 21.5523 14.4477 22 15 22H21C21.5523 22 22 21.5523 22 21V15C22 14.4477 21.5523 14 21 14Z" fill="#B3B3B3"/>
<path d="M7 14H1C0.447715 14 0 14.4477 0 15V21C0 21.5523 0.447715 22 1 22H7C7.55228 22 8 21.5523 8 21V15C8 14.4477 7.55228 14 7 14Z" fill="#B3B3B3"/>
</svg>
