<svg width="23" height="20" viewBox="0 0 23 20" fill="none" xmlns="http://www.w3.org/2000/svg">
<path d="M16.3845 5V3.52603C16.3845 3.23324 16.3845 3.08684 16.3613 2.9361C16.3426 2.8138 16.3027 2.65986 16.2596 2.54386C16.2066 2.40087 16.1506 2.30021 16.0387 2.09891C15.9099 1.86707 15.7993 1.70602 15.6634 1.57286C15.4516 1.36542 15.1963 1.20767 14.9161 1.111C14.5992 1.00169 14.2402 1.00169 13.5223 1.00169L4.7 1C3.5799 1 3.01984 1 2.59202 1.21799C2.21569 1.40973 1.90973 1.71569 1.71799 2.09202C1.5 2.51984 1.5 3.0799 1.5 4.2V5M1.5 5H16.7C18.3802 5 19.2202 5 19.862 5.32698C20.4265 5.6146 20.8854 6.07354 21.173 6.63803C21.5 7.27976 21.5 8.11984 21.5 9.8V14.2C21.5 15.8802 21.5 16.7202 21.173 17.362C20.8854 17.9265 20.4265 18.3854 19.862 18.673C19.2202 19 18.3802 19 16.7 19H6.3C4.61984 19 3.77976 19 3.13803 18.673C2.57354 18.3854 2.1146 17.9265 1.82698 17.362C1.5 16.7202 1.5 15.8802 1.5 14.2V5Z" stroke="#00529C" stroke-width="2" stroke-linecap="round" stroke-linejoin="round"/>
</svg>
