<svg width="24" height="22" viewBox="0 0 24 22" fill="none" xmlns="http://www.w3.org/2000/svg">
<path fill-rule="evenodd" clip-rule="evenodd" d="M2.5 0C1.11929 0 0 1.11929 0 2.5V19.5C0 20.8807 1.11929 22 2.5 22H3.81818C4.32 22 4.04386 22 4.32 22H5.15377C5.42991 22 5.25079 22 5.65195 22H18.9243C19.2 22 19.1499 22 19.4261 22H20.2291C20.5052 22 20.2291 22 20.7273 22H21.5C22.8807 22 24 20.8807 24 19.5V2.5C24 1.11929 22.8807 0 21.5 0H2.5ZM14.5 16.8C17.8137 16.8 20.5 14.1137 20.5 10.8C20.5 7.48629 17.8137 4.8 14.5 4.8C11.1863 4.8 8.4 7.48629 8.4 10.8C8.4 14.1137 11.1863 16.8 14.5 16.8ZM2.5 4.5C2.5 4.22386 2.72386 4 3 4H4.18182C4.45796 4 4.68182 4.22386 4.68182 4.5V8.5C4.68182 8.77614 4.45796 9 4.18182 9H3C2.72386 9 2.5 8.77614 2.5 8.5V4.5ZM3 13C2.72386 13 2.5 13.2239 2.5 13.5V17.5C2.5 17.7761 2.72386 18 3 18H4.18182C4.45796 18 4.68182 17.7761 4.68182 17.5V13.5C4.68182 13.2239 4.45796 13 4.18182 13H3Z" fill="#B3B3B3"/>
<path d="M18 10.8C18 12.733 16.433 14.3 14.5 14.3C12.567 14.3 11 12.733 11 10.8C11 8.867 12.567 7.3 14.5 7.3C16.433 7.3 18 8.867 18 10.8Z" fill="#B3B3B3"/>
</svg>
