<svg width="18" height="18" viewBox="0 0 18 18" fill="none" xmlns="http://www.w3.org/2000/svg">
<path d="M6.33333 4.55556H2.42222C1.9244 4.55556 1.67549 4.55556 1.48534 4.65244C1.31809 4.73766 1.1821 4.87364 1.09688 5.0409C1 5.23104 1 5.47995 1 5.97778V15.5778C1 16.0756 1 16.3245 1.09688 16.5147C1.1821 16.6819 1.31809 16.8179 1.48534 16.9031C1.67549 17 1.9244 17 2.42222 17H6.33333M6.33333 17H11.6667M6.33333 17L6.33333 2.42222C6.33333 1.9244 6.33333 1.67549 6.43022 1.48534C6.51544 1.31809 6.65142 1.1821 6.81868 1.09688C7.00882 1 7.25773 1 7.75556 1L10.2444 1C10.7423 1 10.9912 1 11.1813 1.09688C11.3486 1.1821 11.4846 1.31809 11.5698 1.48534C11.6667 1.67549 11.6667 1.9244 11.6667 2.42222V17M11.6667 8.11111H15.5778C16.0756 8.11111 16.3245 8.11111 16.5147 8.20799C16.6819 8.29322 16.8179 8.4292 16.9031 8.59645C17 8.7866 17 9.03551 17 9.53333V15.5778C17 16.0756 17 16.3245 16.9031 16.5147C16.8179 16.6819 16.6819 16.8179 16.5147 16.9031C16.3245 17 16.0756 17 15.5778 17H11.6667" stroke="#B3B3B3" stroke-width="2" stroke-linecap="round" stroke-linejoin="round"/>
</svg>
